<svg width="99.99999999999999" height="99.99999999999999" xmlns="http://www.w3.org/2000/svg">
 <!-- Created with Method Draw - http://github.com/duopixel/Method-Draw/ -->

 <g>
  <title>background</title>
  <rect fill="#fff" id="canvas_background" height="102" width="102" y="-1" x="-1"/>
  <g display="none" overflow="visible" y="0" x="0" height="100%" width="100%" id="canvasGrid">
   <rect fill="url(#gridpattern)" stroke-width="0" y="0" x="0" height="100%" width="100%"/>
  </g>
 </g>
 <g>
  <title>Layer 1</title>
  <g stroke="null" id="svg_5">
   <path stroke="null" id="svg_4" d="m50,3.00661c-25.94976,0 -46.99338,21.04362 -46.99338,46.99338s21.04362,46.99338 46.99338,46.99338s46.99338,-21.04362 46.99338,-46.99338s-21.04362,-46.99338 -46.99338,-46.99338zm-13.65573,71.04078l-11.44503,0l0,-34.43261l11.44503,0l0,34.43261zm-5.72216,-39.13438l-0.07457,0c-3.84058,0 -6.32449,-2.64381 -6.32449,-5.94803c0,-3.3788 2.55991,-5.94947 6.47507,-5.94947c3.91516,0 6.32449,2.57067 6.39906,5.94947c0,3.30422 -2.4839,5.94803 -6.47507,5.94803zm46.99052,39.13438l-11.4436,0l0,-18.42061c0,-4.62935 -1.65713,-7.78658 -5.79816,-7.78658c-3.16153,0 -5.04453,2.12968 -5.87202,4.18549c-0.3026,0.73571 -0.37646,1.76397 -0.37646,2.79296l0,19.22874l-11.44431,0s0.14987,-31.20224 0,-34.43261l11.44431,0l0,4.87531c1.52089,-2.34623 4.24214,-5.68343 10.31422,-5.68343c7.52987,0 13.17602,4.9212 13.17602,15.49715l0,19.74359zm0,0"/>
  </g>
 </g>
</svg>
