<svg viewBox="1 1 511.99998 511.99998" xmlns="http://www.w3.org/2000/svg"><path d="m512 256c0 141.386719-114.613281 256-256 256s-256-114.613281-256-256 114.613281-256 256-256 256 114.613281 256 256zm0 0" fill="#fcda42"/><path d="m347.097656 495.324219c-28.304687 10.769531-59.003906 16.675781-91.09375 16.675781s-62.789062-5.90625-91.09375-16.675781l20.9375-60.648438 16.867188-48.828125h106.578125l16.863281 48.828125zm0 0" fill="#ededed"/><path d="m326.15625 434.675781-154.945312 42.386719 31.503906-91.214844h106.578125zm0 0" fill="#d6d6d6"/><path d="m502.078125 80.121094v246.722656c-8.359375 29.089844-21.746094 56.058594-39.144531 79.902344h-413.863282c-17.394531-23.84375-30.78125-50.8125-39.140624-79.902344v-246.722656c0-16.96875 13.75-30.730469 30.71875-30.730469h430.699218c16.96875 0 30.730469 13.761719 30.730469 30.730469zm0 0" fill="#ededed"/><path d="m40.652344 343.429688c-5.417969 0-9.828125-4.40625-9.828125-9.824219v-253.488281c0-5.417969 4.410156-9.828126 9.828125-9.828126h430.695312c5.421875 0 9.828125 4.410157 9.828125 9.828126v253.488281c0 5.417969-4.410156 9.824219-9.828125 9.824219zm0 0" fill="#583377"/><g fill="#ff4f9b"><path d="m134.214844 207.921875 49.691406-32.28125c.980469-.785156 2.347656-.980469 3.71875-.980469 5.871094 0 13.304688 6.261719 13.304688 14.28125 0 3.328125-1.371094 6.261719-3.523438 7.632813l-34.433594 22.300781 34.433594 22.304688c2.152344 1.371093 3.523438 4.304687 3.523438 7.632812 0 8.019531-7.433594 14.28125-13.304688 14.28125-1.371094 0-2.738281-.195312-3.71875-.980469l-49.691406-32.28125c-4.5-2.933593-6.066406-7.628906-6.066406-10.957031 0-3.324219 1.566406-8.019531 6.066406-10.953125zm0 0"/><path d="m300.703125 132.402344c0 1.175781-.195313 2.542968-.78125 3.71875l-68.867187 141.058594c-1.371094 2.9375-5.085938 4.894531-8.804688 4.894531-6.652344 0-10.957031-5.480469-10.957031-10.371094 0-1.175781.394531-2.542969.980469-3.71875l68.671874-141.0625c1.566407-3.324219 4.695313-4.890625 8.214844-4.890625 5.480469 0 11.542969 4.109375 11.542969 10.371094zm0 0"/><path d="m377.785156 229.835938-49.691406 32.28125c-.980469.78125-2.347656.976562-3.71875.976562-5.871094 0-13.304688-6.261719-13.304688-14.28125 0-3.324219 1.371094-6.261719 3.523438-7.628906l34.433594-22.304688-34.433594-22.304687c-2.152344-1.367188-3.523438-4.304688-3.523438-7.628907 0-8.023437 7.433594-14.28125 13.304688-14.28125 1.371094 0 2.738281.195313 3.71875.976563l49.691406 32.285156c4.503906 2.933594 6.066406 7.628907 6.066406 10.953125 0 3.328125-1.5625 8.019532-6.066406 10.957032zm0 0"/></g></svg>