<?xml version="1.0" encoding="UTF-8"?>
<svg xmlns="http://www.w3.org/2000/svg" xmlns:xlink="http://www.w3.org/1999/xlink" viewBox="0 0 32 32" version="1.1" width="50px" height="50px">
<g id="surface1">
<path style="fill: #fff" d="M 16 3 C 8.832031 3 3 8.832031 3 16 C 3 23.167969 8.832031 29 16 29 C 23.167969 29 29 23.167969 29 16 C 29 8.832031 23.167969 3 16 3 Z M 16 5 C 22.085938 5 27 9.914063 27 16 C 27 22.085938 22.085938 27 16 27 C 9.914063 27 5 22.085938 5 16 C 5 9.914063 9.914063 5 16 5 Z M 16 8 C 11.242188 8.839844 7 13.226563 7 18 C 9.328125 13.890625 10.882813 13.59375 11.3125 13.59375 C 11.742188 13.59375 11.96875 13.816406 11.96875 14.3125 L 11.96875 20.4375 C 11.96875 21.199219 10.488281 21.074219 10 21 C 11.808594 23.691406 16 24 16 24 L 18 22 L 20 23 C 23.15625 21.554688 25 18.460938 25 18 C 23.628906 19.511719 22.265625 20 22 20 C 21.734375 20 21 19.863281 21 19.5 L 21 12.25 C 21 11.621094 22.453125 9.699219 23 9 C 19.390625 9.945313 18.34375 11.59375 18.34375 11.59375 C 18.34375 11.59375 18.070313 11 17 11 C 17.398438 11.34375 18 12.273438 18 13 L 18 19.125 C 18 19.125 16.695313 20 16 20 C 15.304688 20 14.96875 19.71875 14.96875 19.1875 C 14.96875 18.65625 15 12 15 12 C 15 12 14 12.367188 14 10.3125 C 14 9.285156 16 8 16 8 Z "/>
</g>
</svg>
